<svg version="1.1" id="Layer_1" fill="currentColor" xmlns="http://www.w3.org/2000/svg" xmlns:xlink="http://www.w3.org/1999/xlink" x="0px" y="0px"
	 viewBox="0 0 512 512" style="enable-background:new 0 0 512 512;" xml:space="preserve">
<g>
	<g>
		<rect x="66.783" y="66.783" width="33.391" height="33.391"/>
	</g>
</g>
<g>
	<g>
		<g>
			<polygon points="66.783,244.87 66.783,211.478 33.391,211.478 33.391,166.957 0,166.957 0,345.043 33.391,345.043 33.391,244.87 
							"/>
			<rect x="33.391" y="100.174" width="33.391" height="66.783"/>
			<rect x="66.783" y="411.826" width="33.391" height="33.391"/>
			<rect x="33.391" y="345.043" width="33.391" height="66.783"/>
		</g>
	</g>
</g>
<g>
	<g>
		<g>
			<rect x="311.652" y="66.783" width="33.391" height="66.783"/>
			<rect x="100.174" y="33.391" width="66.783" height="33.391"/>
			<rect x="411.826" y="66.783" width="33.391" height="33.391"/>
			<polygon points="345.043,33.391 345.043,0 166.957,0 166.957,33.391 200.348,33.391 200.348,66.783 233.739,66.783 
				233.739,33.391 278.261,33.391 278.261,66.783 311.652,66.783 311.652,33.391 			"/>
			<rect x="345.043" y="33.391" width="66.783" height="33.391"/>
		</g>
	</g>
</g>
<g>
	<g>
		<rect x="445.217" y="100.174" width="33.391" height="66.783"/>
	</g>
</g>
<g>
	<g>
		<rect x="445.217" y="345.043" width="33.391" height="66.783"/>
	</g>
</g>
<g>
	<g>
		<rect x="411.826" y="411.826" width="33.391" height="33.391"/>
	</g>
</g>
<g>
	<g>
		<rect x="166.957" y="66.783" width="33.391" height="66.783"/>
	</g>
</g>
<g>
	<g>
		<polygon points="378.435,244.87 378.435,133.565 345.043,133.565 345.043,278.261 166.957,278.261 166.957,133.565 
			133.565,133.565 133.565,244.87 66.783,244.87 66.783,278.261 133.565,278.261 133.565,378.435 166.957,378.435 166.957,311.652 
			345.043,311.652 345.043,378.435 378.435,378.435 378.435,278.261 445.217,278.261 445.217,244.87 		"/>
	</g>
</g>
<g>
	<g>
		<rect x="166.957" y="378.435" width="33.391" height="66.783"/>
	</g>
</g>
<g>
	<g>
		<g>
			<rect x="345.043" y="445.217" width="66.783" height="33.391"/>
			<rect x="100.174" y="445.217" width="66.783" height="33.391"/>
			<rect x="311.652" y="378.435" width="33.391" height="66.783"/>
			<polygon points="311.652,445.217 278.261,445.217 278.261,478.609 233.739,478.609 233.739,445.217 200.348,445.217 
				200.348,478.609 166.957,478.609 166.957,512 345.043,512 345.043,478.609 311.652,478.609 			"/>
		</g>
	</g>
</g>
<g>
	<g>
		<polygon points="478.609,166.957 478.609,211.478 445.217,211.478 445.217,244.87 478.609,244.87 478.609,345.043 512,345.043 
			512,244.87 512,211.478 512,166.957 		"/>
	</g>
</g>
</svg>
